<svg xmlns="http://www.w3.org/2000/svg" version="1.1" xmlns:xlink="http://www.w3.org/1999/xlink" width="512" height="512" x="0" y="0" viewBox="0 0 24 24" style="enable-background:new 0 0 512 512" xml:space="preserve" class=""><g><path d="M19.975 5.873a.492.492 0 0 0-.122-.227l-5-5a.493.493 0 0 0-.227-.121.472.472 0 0 0-.06-.012A.492.492 0 0 0 14.5.5h-12A1.502 1.502 0 0 0 1 2v20a1.502 1.502 0 0 0 1.5 1.5h16a1.46 1.46 0 0 0 .618-.135l.004-.003A4.989 4.989 0 0 0 20 13.924V6a.488.488 0 0 0-.013-.064.464.464 0 0 0-.012-.063ZM18.293 5.5H15.5A.5.5 0 0 1 15 5V2.207ZM22 18.5a4 4 0 1 1-4-4 4.004 4.004 0 0 1 4 4Zm-4-5a4.985 4.985 0 0 0-2.97 9H2.5A.5.5 0 0 1 2 22V2a.5.5 0 0 1 .5-.5H14V5a1.502 1.502 0 0 0 1.5 1.5H19v7.101a5.001 5.001 0 0 0-1-.101Z" fill="#ffffff" opacity="1" data-original="#000000" class=""></path><path d="M7.5 10.5h-2a.5.5 0 0 0 0 1h1v.5a.5.5 0 0 0 1 0v-.5a1.5 1.5 0 0 0 0-3h-1a.5.5 0 0 1 0-1h2a.5.5 0 0 0 0-1h-1V6a.5.5 0 0 0-1 0v.5a1.5 1.5 0 0 0 0 3h1a.5.5 0 0 1 0 1ZM15.5 8.5h-5a.5.5 0 0 0 0 1h5a.5.5 0 0 0 0-1ZM15.5 11.5h-5a.5.5 0 0 0 0 1h5a.5.5 0 0 0 0-1ZM12.5 14.5h-7a.5.5 0 0 0 0 1h7a.5.5 0 0 0 0-1ZM16.854 18.146a.5.5 0 0 0-.707.707l1 1a.5.5 0 0 0 .707 0l2-2a.5.5 0 0 0-.707-.707L17.5 18.793Z" fill="#ffffff" opacity="1" data-original="#000000" class=""></path></g></svg>